<?xml version="1.0" encoding="UTF-8"?>
<svg xmlns="http://www.w3.org/2000/svg" xmlns:xlink="http://www.w3.org/1999/xlink" width="375pt" height="374.999991pt" viewBox="0 0 375 374.999991" version="1.2">
<defs>
<clipPath id="clip1">
  <path d="M 2 9.375 L 373 9.375 L 373 364 L 2 364 Z M 2 9.375 "/>
</clipPath>
</defs>
<g id="surface1">
<g clip-path="url(#clip1)" clip-rule="nonzero">
<path style=" stroke:none;fill-rule:nonzero;fill:rgb(97.648621%,77.249146%,37.249756%);fill-opacity:1;" d="M 370.800781 142.570312 C 366.941406 130.675781 355.949219 122.507812 343.4375 122.253906 L 246.941406 120.292969 L 215.261719 29.136719 C 211.144531 17.300781 199.996094 9.375 187.488281 9.375 C 174.980469 9.375 163.828125 17.300781 159.714844 29.136719 L 128.035156 120.292969 L 31.539062 122.253906 C 19.015625 122.507812 8.035156 130.675781 4.175781 142.570312 C 0.3125 154.464844 4.402344 167.515625 14.375 175.082031 L 91.289062 233.390625 L 63.339844 325.773438 C 59.695312 337.753906 64.070312 350.71875 74.210938 358.070312 C 84.328125 365.429688 98.003906 365.5625 108.261719 358.417969 L 187.488281 303.296875 L 266.703125 358.417969 C 271.765625 361.941406 277.636719 363.699219 283.503906 363.699219 C 289.578125 363.699219 295.640625 361.808594 300.789062 358.070312 C 310.914062 350.71875 315.269531 337.753906 311.660156 325.773438 L 283.699219 233.390625 L 360.613281 175.082031 C 370.574219 167.515625 374.675781 154.464844 370.800781 142.570312 "/>
</g>
<path style=" stroke:none;fill-rule:nonzero;fill:rgb(13.729858%,12.159729%,12.159729%);fill-opacity:1;" d="M 147.667969 180.988281 C 147.667969 194.40625 136.789062 205.285156 123.367188 205.285156 C 109.941406 205.285156 99.0625 194.40625 99.0625 180.988281 C 99.0625 167.5625 109.941406 156.6875 123.367188 156.6875 C 136.789062 156.6875 147.667969 167.5625 147.667969 180.988281 "/>
<path style=" stroke:none;fill-rule:nonzero;fill:rgb(100%,100%,100%);fill-opacity:1;" d="M 119.15625 173.046875 C 119.15625 177.429688 115.597656 180.988281 111.214844 180.988281 C 106.824219 180.988281 103.273438 177.429688 103.273438 173.046875 C 103.273438 168.65625 106.824219 165.101562 111.214844 165.101562 C 115.597656 165.101562 119.15625 168.65625 119.15625 173.046875 "/>
<path style=" stroke:none;fill-rule:nonzero;fill:rgb(100%,100%,100%);fill-opacity:1;" d="M 126.273438 175.957031 C 126.273438 177.5625 124.972656 178.867188 123.367188 178.867188 C 121.757812 178.867188 120.457031 177.5625 120.457031 175.957031 C 120.457031 174.34375 121.757812 173.046875 123.367188 173.046875 C 124.972656 173.046875 126.273438 174.34375 126.273438 175.957031 "/>
<path style=" stroke:none;fill-rule:nonzero;fill:rgb(13.729858%,12.159729%,12.159729%);fill-opacity:1;" d="M 276.589844 180.988281 C 276.589844 194.40625 265.703125 205.285156 252.28125 205.285156 C 238.871094 205.285156 227.988281 194.40625 227.988281 180.988281 C 227.988281 167.5625 238.871094 156.6875 252.28125 156.6875 C 265.703125 156.6875 276.589844 167.5625 276.589844 180.988281 "/>
<path style=" stroke:none;fill-rule:nonzero;fill:rgb(100%,100%,100%);fill-opacity:1;" d="M 248.082031 173.046875 C 248.082031 177.429688 244.519531 180.988281 240.136719 180.988281 C 235.753906 180.988281 232.191406 177.429688 232.191406 173.046875 C 232.191406 168.65625 235.753906 165.101562 240.136719 165.101562 C 244.519531 165.101562 248.082031 168.65625 248.082031 173.046875 "/>
<path style=" stroke:none;fill-rule:nonzero;fill:rgb(100%,100%,100%);fill-opacity:1;" d="M 255.195312 175.957031 C 255.195312 177.5625 253.894531 178.867188 252.28125 178.867188 C 250.679688 178.867188 249.382812 177.5625 249.382812 175.957031 C 249.382812 174.34375 250.679688 173.046875 252.28125 173.046875 C 253.894531 173.046875 255.195312 174.34375 255.195312 175.957031 "/>
<path style=" stroke:none;fill-rule:nonzero;fill:rgb(13.729858%,12.159729%,12.159729%);fill-opacity:1;" d="M 167.660156 235.300781 L 208.199219 235.300781 C 209.714844 235.300781 210.941406 234.070312 210.941406 232.554688 C 210.941406 231.042969 209.714844 229.8125 208.199219 229.8125 L 167.660156 229.8125 C 166.144531 229.8125 164.917969 231.042969 164.917969 232.554688 C 164.917969 234.070312 166.144531 235.300781 167.660156 235.300781 "/>
<path style=" stroke:none;fill-rule:nonzero;fill:rgb(100%,100%,100%);fill-opacity:1;" d="M 133.5 143.097656 L 153.296875 161.582031 "/>
<path style=" stroke:none;fill-rule:nonzero;fill:rgb(13.729858%,12.159729%,12.159729%);fill-opacity:1;" d="M 131.628906 145.097656 L 151.421875 163.585938 C 152.53125 164.621094 154.269531 164.5625 155.300781 163.453125 C 156.332031 162.347656 156.273438 160.613281 155.167969 159.578125 L 135.371094 141.09375 C 134.265625 140.0625 132.53125 140.121094 131.496094 141.226562 C 130.460938 142.335938 130.523438 144.070312 131.628906 145.097656 "/>
<path style=" stroke:none;fill-rule:nonzero;fill:rgb(100%,100%,100%);fill-opacity:1;" d="M 241.769531 143.097656 L 221.96875 161.582031 "/>
<path style=" stroke:none;fill-rule:nonzero;fill:rgb(13.729858%,12.159729%,12.159729%);fill-opacity:1;" d="M 239.898438 141.09375 L 220.101562 159.578125 C 218.996094 160.613281 218.9375 162.347656 219.96875 163.453125 C 221 164.5625 222.738281 164.621094 223.839844 163.585938 L 243.640625 145.097656 C 244.75 144.070312 244.808594 142.335938 243.773438 141.226562 C 242.746094 140.121094 241.007812 140.0625 239.898438 141.09375 "/>
<path style="fill:none;stroke-width:1;stroke-linecap:round;stroke-linejoin:miter;stroke:rgb(0%,0%,0%);stroke-opacity:1;stroke-miterlimit:4;" d="M 0.499973 0.000198314 L 8.626766 0.000198314 " transform="matrix(8.217898,0,0,8.249999,149.852207,232.080395)"/>
</g>
</svg>
