<?xml version="1.0" encoding="UTF-8"?>
<svg xmlns="http://www.w3.org/2000/svg" xmlns:xlink="http://www.w3.org/1999/xlink" width="375pt" height="374.999991pt" viewBox="0 0 375 374.999991" version="1.2">
<defs>
<clipPath id="clip1">
  <path d="M 2 9.375 L 373 9.375 L 373 364 L 2 364 Z M 2 9.375 "/>
</clipPath>
<clipPath id="clip2">
  <path d="M 112.5 151 L 162 151 L 162 201 L 112.5 201 Z M 112.5 151 "/>
</clipPath>
<clipPath id="clip3">
  <path d="M 213 151 L 262.5 151 L 262.5 201 L 213 201 Z M 213 151 "/>
</clipPath>
<clipPath id="clip4">
  <path d="M 155 205 L 217 205 L 217 237.46875 L 155 237.46875 Z M 155 205 "/>
</clipPath>
</defs>
<g id="surface1">
<g clip-path="url(#clip1)" clip-rule="nonzero">
<path style=" stroke:none;fill-rule:nonzero;fill:rgb(97.648621%,77.249146%,37.249756%);fill-opacity:1;" d="M 370.800781 142.570312 C 366.941406 130.675781 355.949219 122.507812 343.4375 122.253906 L 246.941406 120.292969 L 215.261719 29.136719 C 211.144531 17.300781 199.996094 9.375 187.488281 9.375 C 174.980469 9.375 163.828125 17.300781 159.714844 29.136719 L 128.035156 120.292969 L 31.539062 122.253906 C 19.015625 122.507812 8.035156 130.675781 4.175781 142.570312 C 0.3125 154.464844 4.402344 167.515625 14.375 175.082031 L 91.289062 233.390625 L 63.339844 325.773438 C 59.695312 337.753906 64.070312 350.71875 74.210938 358.070312 C 84.328125 365.429688 98.003906 365.5625 108.261719 358.417969 L 187.488281 303.296875 L 266.703125 358.417969 C 271.765625 361.941406 277.636719 363.699219 283.503906 363.699219 C 289.578125 363.699219 295.640625 361.808594 300.789062 358.070312 C 310.914062 350.71875 315.269531 337.753906 311.660156 325.773438 L 283.699219 233.390625 L 360.613281 175.082031 C 370.574219 167.515625 374.675781 154.464844 370.800781 142.570312 "/>
</g>
<g clip-path="url(#clip2)" clip-rule="nonzero">
<path style=" stroke:none;fill-rule:nonzero;fill:rgb(3.138733%,3.529358%,3.919983%);fill-opacity:1;" d="M 161.785156 175.855469 C 161.785156 189.492188 150.769531 200.546875 137.1875 200.546875 C 123.601562 200.546875 112.589844 189.492188 112.589844 175.855469 C 112.589844 162.21875 123.601562 151.164062 137.1875 151.164062 C 150.769531 151.164062 161.785156 162.21875 161.785156 175.855469 "/>
</g>
<path style=" stroke:none;fill-rule:nonzero;fill:rgb(100%,100%,100%);fill-opacity:1;" d="M 155.226562 166.527344 C 155.226562 170.769531 151.800781 174.207031 147.570312 174.207031 C 143.347656 174.207031 139.921875 170.769531 139.921875 166.527344 C 139.921875 162.285156 143.347656 158.847656 147.570312 158.847656 C 151.800781 158.847656 155.226562 162.285156 155.226562 166.527344 "/>
<path style=" stroke:none;fill-rule:nonzero;fill:rgb(100%,100%,100%);fill-opacity:1;" d="M 126.9375 180.316406 C 126.9375 182.855469 124.890625 184.910156 122.359375 184.910156 C 119.832031 184.910156 117.78125 182.855469 117.78125 180.316406 C 117.78125 177.777344 119.832031 175.71875 122.359375 175.71875 C 124.890625 175.71875 126.9375 177.777344 126.9375 180.316406 "/>
<g clip-path="url(#clip3)" clip-rule="nonzero">
<path style=" stroke:none;fill-rule:nonzero;fill:rgb(3.138733%,3.529358%,3.919983%);fill-opacity:1;" d="M 262.363281 175.855469 C 262.363281 189.492188 251.351562 200.546875 237.765625 200.546875 C 224.179688 200.546875 213.164062 189.492188 213.164062 175.855469 C 213.164062 162.21875 224.179688 151.164062 237.765625 151.164062 C 251.351562 151.164062 262.363281 162.21875 262.363281 175.855469 "/>
</g>
<path style=" stroke:none;fill-rule:nonzero;fill:rgb(100%,100%,100%);fill-opacity:1;" d="M 255.800781 166.527344 C 255.800781 170.769531 252.378906 174.207031 248.148438 174.207031 C 243.925781 174.207031 240.5 170.769531 240.5 166.527344 C 240.5 162.285156 243.925781 158.847656 248.148438 158.847656 C 252.378906 158.847656 255.800781 162.285156 255.800781 166.527344 "/>
<path style=" stroke:none;fill-rule:nonzero;fill:rgb(100%,100%,100%);fill-opacity:1;" d="M 227.515625 180.316406 C 227.515625 182.855469 225.464844 184.910156 222.9375 184.910156 C 220.410156 184.910156 218.359375 182.855469 218.359375 180.316406 C 218.359375 177.777344 220.410156 175.71875 222.9375 175.71875 C 225.464844 175.71875 227.515625 177.777344 227.515625 180.316406 "/>
<g clip-path="url(#clip4)" clip-rule="nonzero">
<path style=" stroke:none;fill-rule:nonzero;fill:rgb(13.729858%,12.159729%,12.548828%);fill-opacity:1;" d="M 159.875 237.582031 C 159.808594 237.582031 159.742188 237.582031 159.679688 237.578125 C 157.417969 237.472656 155.667969 235.546875 155.777344 233.273438 C 155.789062 233 157.390625 205.761719 186.65625 205.761719 C 216.011719 205.761719 216.988281 233.097656 216.992188 233.371094 C 217.046875 235.644531 215.253906 237.53125 212.988281 237.582031 C 210.71875 237.652344 208.847656 235.835938 208.796875 233.5625 C 208.730469 231.578125 207.554688 213.992188 186.65625 213.992188 C 165.125 213.992188 164.003906 232.855469 163.964844 233.660156 C 163.863281 235.863281 162.050781 237.582031 159.875 237.582031 "/>
</g>
<path style=" stroke:none;fill-rule:nonzero;fill:rgb(13.729858%,12.159729%,12.548828%);fill-opacity:1;" d="M 165.058594 169.546875 C 164.300781 169.546875 163.53125 169.335938 162.84375 168.890625 L 128.953125 146.941406 C 127.050781 145.710938 126.503906 143.164062 127.726562 141.253906 C 128.957031 139.34375 131.492188 138.796875 133.394531 140.027344 L 167.285156 161.972656 C 169.1875 163.203125 169.734375 165.753906 168.507812 167.664062 C 167.722656 168.882812 166.40625 169.546875 165.058594 169.546875 "/>
<path style=" stroke:none;fill-rule:nonzero;fill:rgb(13.729858%,12.159729%,12.548828%);fill-opacity:1;" d="M 207.703125 168.449219 C 206.359375 168.449219 205.039062 167.785156 204.257812 166.566406 C 203.027344 164.65625 203.574219 162.109375 205.476562 160.878906 L 239.367188 138.929688 C 241.273438 137.695312 243.808594 138.246094 245.035156 140.15625 C 246.265625 142.066406 245.71875 144.613281 243.816406 145.847656 L 209.921875 167.789062 C 209.234375 168.238281 208.464844 168.449219 207.703125 168.449219 "/>
</g>
</svg>
