<?xml version="1.0" encoding="UTF-8"?>
<svg xmlns="http://www.w3.org/2000/svg" xmlns:xlink="http://www.w3.org/1999/xlink" width="375pt" height="374.999991pt" viewBox="0 0 375 374.999991" version="1.2">
<defs>
<clipPath id="clip1">
  <path d="M 2 9.375 L 373 9.375 L 373 364 L 2 364 Z M 2 9.375 "/>
</clipPath>
<clipPath id="clip2">
  <path d="M 216 220 L 255 220 L 255 243.28125 L 216 243.28125 Z M 216 220 "/>
</clipPath>
<clipPath id="clip3">
  <path d="M 112.5 220 L 151 220 L 151 243.28125 L 112.5 243.28125 Z M 112.5 220 "/>
</clipPath>
<clipPath id="clip4">
  <path d="M 236 131.53125 L 262.5 131.53125 L 262.5 166 L 236 166 Z M 236 131.53125 "/>
</clipPath>
</defs>
<g id="surface1">
<g clip-path="url(#clip1)" clip-rule="nonzero">
<path style=" stroke:none;fill-rule:nonzero;fill:rgb(97.648621%,77.249146%,37.249756%);fill-opacity:1;" d="M 370.800781 142.570312 C 366.941406 130.675781 355.949219 122.507812 343.4375 122.253906 L 246.941406 120.292969 L 215.261719 29.136719 C 211.144531 17.300781 199.996094 9.375 187.488281 9.375 C 174.980469 9.375 163.828125 17.300781 159.714844 29.136719 L 128.035156 120.292969 L 31.539062 122.253906 C 19.015625 122.507812 8.035156 130.675781 4.175781 142.570312 C 0.3125 154.464844 4.402344 167.515625 14.375 175.082031 L 91.289062 233.390625 L 63.339844 325.773438 C 59.695312 337.753906 64.070312 350.71875 74.210938 358.070312 C 84.328125 365.429688 98.003906 365.5625 108.261719 358.417969 L 187.488281 303.296875 L 266.703125 358.417969 C 271.765625 361.941406 277.636719 363.699219 283.503906 363.699219 C 289.578125 363.699219 295.640625 361.808594 300.789062 358.070312 C 310.914062 350.71875 315.269531 337.753906 311.660156 325.773438 L 283.699219 233.390625 L 360.613281 175.082031 C 370.574219 167.515625 374.675781 154.464844 370.800781 142.570312 "/>
</g>
<path style=" stroke:none;fill-rule:nonzero;fill:rgb(24.308777%,7.839966%,8.628845%);fill-opacity:1;" d="M 149.828125 191.191406 C 149.824219 195.011719 148.285156 198.445312 145.777344 200.953125 C 143.265625 203.457031 139.828125 204.996094 136 204.996094 C 132.171875 204.996094 128.730469 203.457031 126.21875 200.953125 C 123.710938 198.445312 122.171875 195.011719 122.167969 191.191406 C 122.167969 189.648438 120.917969 188.398438 119.375 188.398438 C 117.828125 188.398438 116.578125 189.648438 116.578125 191.191406 C 116.574219 196.535156 118.757812 201.398438 122.265625 204.898438 C 125.773438 208.402344 130.644531 210.582031 136 210.578125 C 141.355469 210.582031 146.226562 208.402344 149.730469 204.898438 C 153.242188 201.398438 155.421875 196.535156 155.417969 191.191406 C 155.417969 189.648438 154.167969 188.398438 152.621094 188.398438 C 151.078125 188.398438 149.828125 189.648438 149.828125 191.191406 "/>
<path style=" stroke:none;fill-rule:nonzero;fill:rgb(24.308777%,7.839966%,8.628845%);fill-opacity:1;" d="M 245.03125 191.191406 C 245.027344 195.011719 243.484375 198.445312 240.980469 200.953125 C 238.46875 203.457031 235.027344 204.996094 231.199219 204.996094 C 227.375 204.996094 223.933594 203.457031 221.421875 200.953125 C 218.914062 198.445312 217.371094 195.011719 217.371094 191.191406 C 217.371094 189.648438 216.117188 188.398438 214.574219 188.398438 C 213.03125 188.398438 211.777344 189.648438 211.777344 191.191406 C 211.777344 196.535156 213.957031 201.398438 217.46875 204.898438 C 220.972656 208.402344 225.847656 210.582031 231.199219 210.578125 C 236.554688 210.582031 241.425781 208.402344 244.933594 204.898438 C 248.441406 201.398438 250.625 196.535156 250.621094 191.191406 C 250.621094 189.648438 249.371094 188.398438 247.824219 188.398438 C 246.28125 188.398438 245.03125 189.648438 245.03125 191.191406 "/>
<g clip-path="url(#clip2)" clip-rule="nonzero">
<path style=" stroke:none;fill-rule:nonzero;fill:rgb(98.429871%,33.729553%,39.99939%);fill-opacity:1;" d="M 254.6875 232.105469 C 254.6875 238.269531 246.136719 243.269531 235.585938 243.269531 C 225.03125 243.269531 216.484375 238.269531 216.484375 232.105469 C 216.484375 225.941406 225.03125 220.941406 235.585938 220.941406 C 246.136719 220.941406 254.6875 225.941406 254.6875 232.105469 "/>
</g>
<g clip-path="url(#clip3)" clip-rule="nonzero">
<path style=" stroke:none;fill-rule:nonzero;fill:rgb(98.429871%,33.729553%,39.99939%);fill-opacity:1;" d="M 150.714844 232.105469 C 150.714844 238.269531 142.160156 243.269531 131.613281 243.269531 C 121.0625 243.269531 112.507812 238.269531 112.507812 232.105469 C 112.507812 225.941406 121.0625 220.941406 131.613281 220.941406 C 142.160156 220.941406 150.714844 225.941406 150.714844 232.105469 "/>
</g>
<path style=" stroke:none;fill-rule:nonzero;fill:rgb(24.308777%,7.839966%,8.628845%);fill-opacity:1;" d="M 190.027344 229.832031 C 190.027344 234.359375 186.351562 238.03125 181.8125 238.03125 C 177.28125 238.03125 173.601562 234.359375 173.601562 229.832031 C 173.601562 225.304688 177.28125 221.632812 181.8125 221.632812 C 186.351562 221.632812 190.027344 225.304688 190.027344 229.832031 "/>
<path style=" stroke:none;fill-rule:nonzero;fill:rgb(98.429871%,33.729553%,39.99939%);fill-opacity:1;" d="M 191.667969 175.855469 C 191.148438 175.921875 190.644531 176.011719 190.144531 176.121094 C 189.773438 176.195312 189.4375 176.1875 189.125 176.101562 C 188.8125 176.015625 188.511719 175.8125 188.226562 175.484375 C 188.140625 175.359375 188.046875 175.207031 187.941406 175.039062 C 187.835938 174.867188 187.726562 174.6875 187.609375 174.484375 C 187.496094 174.285156 187.386719 174.09375 187.28125 173.902344 C 187.171875 173.710938 187.078125 173.53125 186.992188 173.359375 C 186.867188 173.035156 186.839844 172.816406 186.917969 172.699219 C 186.996094 172.585938 187.179688 172.480469 187.460938 172.382812 C 188.101562 172.238281 188.820312 172.105469 189.625 171.976562 C 190.425781 171.851562 191.261719 171.738281 192.125 171.648438 C 192.992188 171.554688 193.863281 171.476562 194.746094 171.414062 C 195.625 171.351562 196.457031 171.296875 197.238281 171.253906 C 197.664062 171.242188 197.976562 171.292969 198.175781 171.414062 C 198.375 171.535156 198.550781 171.757812 198.707031 172.085938 C 198.890625 172.464844 199.023438 172.804688 199.101562 173.09375 C 199.179688 173.382812 199.261719 173.660156 199.347656 173.914062 C 199.457031 174.238281 199.5 174.546875 199.464844 174.839844 C 199.429688 175.128906 199.265625 175.4375 198.984375 175.761719 C 197.492188 177.5625 196 179.390625 194.5 181.25 C 193 183.105469 191.578125 184.902344 190.230469 186.648438 C 190.757812 186.519531 191.277344 186.417969 191.796875 186.339844 C 192.3125 186.261719 196.507812 185.289062 197.089844 185.214844 C 197.871094 185.132812 198.40625 185.320312 198.6875 185.789062 C 198.855469 186.058594 199 186.320312 199.125 186.574219 C 199.246094 186.832031 199.332031 187.082031 199.390625 187.320312 C 199.503906 187.601562 199.503906 187.800781 199.390625 187.914062 C 199.277344 188.03125 199.035156 188.109375 198.667969 188.148438 C 197.757812 188.320312 193.15625 189.394531 192.148438 189.570312 C 191.140625 189.75 190.207031 189.9375 189.359375 190.136719 C 189.074219 190.207031 188.832031 190.246094 188.632812 190.253906 C 188.433594 190.261719 188.257812 190.25 188.101562 190.21875 C 187.945312 190.191406 187.804688 190.144531 187.6875 190.082031 C 187.5625 190.019531 187.441406 189.949219 187.3125 189.878906 C 187.074219 189.710938 186.84375 189.539062 186.632812 189.371094 C 186.417969 189.199219 186.148438 188.988281 185.824219 188.730469 C 185.722656 188.632812 185.621094 188.527344 185.511719 188.414062 C 185.40625 188.300781 185.324219 188.179688 185.257812 188.050781 C 185.195312 187.925781 185.15625 187.785156 185.152344 187.636719 C 185.144531 187.488281 185.191406 187.328125 185.289062 187.160156 C 185.617188 186.578125 186.066406 185.839844 186.640625 184.945312 C 187.21875 184.054688 187.871094 183.082031 188.601562 182.035156 C 189.332031 180.984375 190.109375 179.90625 190.933594 178.792969 C 191.757812 177.679688 192.582031 176.613281 193.402344 175.589844 C 192.761719 175.707031 192.1875 175.792969 191.667969 175.855469 "/>
<path style=" stroke:none;fill-rule:nonzero;fill:rgb(98.429871%,33.729553%,39.99939%);fill-opacity:1;" d="M 216.785156 157.8125 C 216.09375 157.898438 215.417969 158.015625 214.757812 158.167969 C 214.265625 158.261719 213.808594 158.25 213.394531 158.136719 C 212.980469 158.023438 212.582031 157.75 212.203125 157.316406 C 212.09375 157.148438 211.964844 156.949219 211.820312 156.722656 C 211.679688 156.496094 211.53125 156.25 211.382812 155.988281 C 211.234375 155.722656 211.085938 155.460938 210.945312 155.207031 C 210.800781 154.953125 210.671875 154.714844 210.5625 154.488281 C 210.386719 154.054688 210.355469 153.757812 210.460938 153.609375 C 210.566406 153.457031 210.804688 153.316406 211.183594 153.183594 C 212.035156 152.996094 212.992188 152.816406 214.058594 152.644531 C 215.132812 152.476562 216.238281 152.328125 217.394531 152.207031 C 218.546875 152.085938 219.710938 151.980469 220.882812 151.898438 C 222.054688 151.808594 223.160156 151.742188 224.199219 151.683594 C 224.765625 151.664062 225.183594 151.734375 225.449219 151.898438 C 225.714844 152.058594 225.949219 152.355469 226.15625 152.789062 C 226.398438 153.296875 226.574219 153.746094 226.679688 154.132812 C 226.785156 154.519531 226.894531 154.882812 227.003906 155.222656 C 227.15625 155.65625 227.207031 156.066406 227.164062 156.453125 C 227.117188 156.839844 226.902344 157.25 226.527344 157.683594 C 224.539062 160.082031 222.546875 162.515625 220.554688 164.988281 C 218.558594 167.460938 216.664062 169.859375 214.871094 172.179688 C 215.570312 172.007812 216.265625 171.871094 216.953125 171.769531 C 217.644531 171.664062 223.226562 170.367188 224.003906 170.269531 C 225.042969 170.15625 225.753906 170.414062 226.132812 171.035156 C 226.355469 171.394531 226.550781 171.746094 226.710938 172.085938 C 226.875 172.421875 226.992188 172.753906 227.066406 173.074219 C 227.214844 173.453125 227.214844 173.714844 227.066406 173.867188 C 226.914062 174.015625 226.59375 174.121094 226.101562 174.179688 C 224.894531 174.402344 218.765625 175.835938 217.421875 176.070312 C 216.078125 176.308594 214.84375 176.558594 213.707031 176.820312 C 213.328125 176.917969 213.007812 176.96875 212.742188 176.976562 C 212.476562 176.988281 212.242188 176.972656 212.035156 176.933594 C 211.824219 176.894531 211.640625 176.835938 211.480469 176.75 C 211.320312 176.664062 211.15625 176.574219 210.984375 176.480469 C 210.664062 176.253906 210.363281 176.027344 210.078125 175.804688 C 209.792969 175.578125 209.4375 175.292969 209 174.953125 C 208.867188 174.820312 208.734375 174.679688 208.589844 174.527344 C 208.449219 174.375 208.332031 174.21875 208.25 174.046875 C 208.164062 173.878906 208.117188 173.695312 208.105469 173.492188 C 208.097656 173.296875 208.160156 173.085938 208.292969 172.855469 C 208.726562 172.085938 209.328125 171.101562 210.09375 169.914062 C 210.859375 168.726562 211.726562 167.433594 212.703125 166.035156 C 213.675781 164.640625 214.707031 163.199219 215.804688 161.71875 C 216.902344 160.238281 217.996094 158.816406 219.09375 157.460938 C 218.242188 157.609375 217.472656 157.726562 216.785156 157.8125 "/>
<g clip-path="url(#clip4)" clip-rule="nonzero">
<path style=" stroke:none;fill-rule:nonzero;fill:rgb(98.429871%,33.729553%,39.99939%);fill-opacity:1;" d="M 248.496094 139.738281 C 247.574219 139.851562 246.671875 140.007812 245.785156 140.210938 C 245.128906 140.335938 244.523438 140.324219 243.964844 140.171875 C 243.40625 140.019531 242.878906 139.65625 242.371094 139.074219 C 242.222656 138.847656 242.046875 138.582031 241.863281 138.28125 C 241.667969 137.976562 241.476562 137.648438 241.273438 137.296875 C 241.070312 136.941406 240.875 136.59375 240.683594 136.253906 C 240.492188 135.914062 240.324219 135.589844 240.171875 135.289062 C 239.941406 134.707031 239.902344 134.316406 240.039062 134.113281 C 240.179688 133.914062 240.5 133.722656 241.007812 133.546875 C 242.144531 133.292969 243.429688 133.050781 244.855469 132.828125 C 246.285156 132.597656 247.773438 132.402344 249.3125 132.238281 C 250.855469 132.074219 252.410156 131.933594 253.980469 131.824219 C 255.550781 131.707031 257.027344 131.613281 258.417969 131.539062 C 259.175781 131.515625 259.734375 131.609375 260.085938 131.824219 C 260.441406 132.039062 260.757812 132.433594 261.039062 133.015625 C 261.363281 133.699219 261.597656 134.296875 261.738281 134.816406 C 261.878906 135.332031 262.023438 135.816406 262.175781 136.273438 C 262.378906 136.855469 262.445312 137.402344 262.382812 137.921875 C 262.320312 138.4375 262.035156 138.984375 261.53125 139.566406 C 258.875 142.773438 256.210938 146.03125 253.546875 149.335938 C 250.875 152.644531 248.339844 155.851562 245.941406 158.953125 C 246.871094 158.730469 247.804688 158.546875 248.726562 158.410156 C 249.648438 158.269531 257.117188 156.53125 258.15625 156.40625 C 259.550781 156.253906 260.496094 156.59375 261 157.429688 C 261.304688 157.910156 261.5625 158.375 261.777344 158.832031 C 261.996094 159.285156 262.152344 159.726562 262.253906 160.15625 C 262.457031 160.660156 262.457031 161.011719 262.253906 161.214844 C 262.050781 161.417969 261.621094 161.554688 260.964844 161.632812 C 259.347656 161.933594 251.148438 163.847656 249.351562 164.164062 C 247.554688 164.480469 245.902344 164.8125 244.382812 165.167969 C 243.875 165.292969 243.445312 165.363281 243.09375 165.375 C 242.734375 165.386719 242.421875 165.371094 242.144531 165.320312 C 241.863281 165.269531 241.621094 165.1875 241.40625 165.074219 C 241.191406 164.960938 240.96875 164.839844 240.742188 164.710938 C 240.308594 164.410156 239.90625 164.109375 239.527344 163.804688 C 239.148438 163.503906 238.667969 163.125 238.085938 162.667969 C 237.90625 162.492188 237.726562 162.300781 237.535156 162.101562 C 237.347656 161.898438 237.191406 161.683594 237.082031 161.457031 C 236.964844 161.230469 236.902344 160.984375 236.890625 160.71875 C 236.878906 160.453125 236.960938 160.167969 237.136719 159.867188 C 237.71875 158.832031 238.523438 157.519531 239.546875 155.925781 C 240.570312 154.335938 241.730469 152.609375 243.039062 150.738281 C 244.339844 148.871094 245.722656 146.945312 247.191406 144.960938 C 248.65625 142.980469 250.125 141.082031 251.589844 139.265625 C 250.453125 139.464844 249.417969 139.625 248.496094 139.738281 "/>
</g>
</g>
</svg>
