<?xml version="1.0" encoding="UTF-8"?>
<svg xmlns="http://www.w3.org/2000/svg" xmlns:xlink="http://www.w3.org/1999/xlink" width="375pt" height="374.999991pt" viewBox="0 0 375 374.999991" version="1.2">
<defs>
<clipPath id="clip1">
  <path d="M 2 9.375 L 373 9.375 L 373 364 L 2 364 Z M 2 9.375 "/>
</clipPath>
<clipPath id="clip2">
  <path d="M 112.5 132.375 L 162 132.375 L 162 162 L 112.5 162 Z M 112.5 132.375 "/>
</clipPath>
<clipPath id="clip3">
  <path d="M 213 132.375 L 262.5 132.375 L 262.5 162 L 213 162 Z M 213 132.375 "/>
</clipPath>
</defs>
<g id="surface1">
<g clip-path="url(#clip1)" clip-rule="nonzero">
<path style=" stroke:none;fill-rule:nonzero;fill:rgb(97.648621%,77.249146%,37.249756%);fill-opacity:1;" d="M 370.800781 142.570312 C 366.941406 130.675781 355.949219 122.507812 343.4375 122.253906 L 246.941406 120.292969 L 215.261719 29.136719 C 211.144531 17.300781 199.996094 9.375 187.488281 9.375 C 174.980469 9.375 163.828125 17.300781 159.714844 29.136719 L 128.035156 120.292969 L 31.539062 122.253906 C 19.015625 122.507812 8.035156 130.675781 4.175781 142.570312 C 0.3125 154.464844 4.402344 167.515625 14.375 175.082031 L 91.289062 233.390625 L 63.339844 325.773438 C 59.695312 337.753906 64.070312 350.71875 74.210938 358.070312 C 84.328125 365.429688 98.003906 365.5625 108.261719 358.417969 L 187.488281 303.296875 L 266.703125 358.417969 C 271.765625 361.941406 277.636719 363.699219 283.503906 363.699219 C 289.578125 363.699219 295.640625 361.808594 300.789062 358.070312 C 310.914062 350.71875 315.269531 337.753906 311.660156 325.773438 L 283.699219 233.390625 L 360.613281 175.082031 C 370.574219 167.515625 374.675781 154.464844 370.800781 142.570312 "/>
</g>
<path style=" stroke:none;fill-rule:nonzero;fill:rgb(13.729858%,12.159729%,12.548828%);fill-opacity:1;" d="M 168.039062 170.546875 C 170.855469 181.960938 163.886719 193.492188 152.480469 196.3125 C 141.066406 199.125 129.53125 192.160156 126.714844 180.75 C 123.898438 169.335938 130.863281 157.804688 142.277344 154.984375 C 153.691406 152.171875 165.222656 159.136719 168.039062 170.546875 "/>
<path style=" stroke:none;fill-rule:nonzero;fill:rgb(100%,100%,100%);fill-opacity:1;" d="M 165.519531 180.992188 C 165.519531 186.734375 160.859375 191.398438 155.117188 191.398438 C 149.371094 191.398438 144.714844 186.734375 144.714844 180.992188 C 144.714844 175.246094 149.371094 170.585938 155.117188 170.585938 C 160.859375 170.585938 165.519531 175.246094 165.519531 180.992188 "/>
<path style=" stroke:none;fill-rule:nonzero;fill:rgb(13.729858%,12.159729%,12.548828%);fill-opacity:1;" d="M 121.144531 173.355469 C 121.144531 173.355469 121.40625 172.921875 121.859375 172.160156 C 122.316406 171.398438 122.980469 170.320312 123.835938 169.054688 C 124.265625 168.425781 124.753906 167.761719 125.261719 167.050781 C 125.789062 166.351562 126.339844 165.613281 126.957031 164.882812 C 127.585938 164.164062 128.21875 163.402344 128.9375 162.699219 C 129.285156 162.335938 129.640625 161.972656 130.027344 161.636719 C 130.40625 161.300781 130.769531 160.9375 131.171875 160.621094 C 131.570312 160.300781 131.976562 159.984375 132.378906 159.667969 C 132.800781 159.378906 133.21875 159.09375 133.636719 158.808594 C 134.046875 158.511719 134.5 158.292969 134.921875 158.039062 C 135.347656 157.78125 135.789062 157.574219 136.226562 157.371094 C 137.078125 156.929688 137.960938 156.632812 138.785156 156.320312 C 139.625 156.074219 140.410156 155.800781 141.160156 155.644531 C 141.53125 155.554688 141.886719 155.46875 142.226562 155.386719 C 142.566406 155.332031 142.894531 155.273438 143.199219 155.222656 C 143.808594 155.113281 144.339844 155.027344 144.78125 154.980469 C 145.664062 154.882812 146.171875 154.828125 146.171875 154.828125 C 146.171875 154.828125 145.671875 154.929688 144.804688 155.113281 C 144.367188 155.1875 143.84375 155.3125 143.25 155.464844 C 142.949219 155.539062 142.632812 155.617188 142.300781 155.703125 C 141.96875 155.796875 141.621094 155.898438 141.257812 156.003906 C 140.523438 156.195312 139.765625 156.496094 138.949219 156.78125 C 138.15625 157.121094 137.3125 157.453125 136.484375 157.898438 C 136.066406 158.105469 135.636719 158.320312 135.230469 158.582031 C 134.824219 158.839844 134.386719 159.058594 133.988281 159.347656 C 133.582031 159.628906 133.179688 159.914062 132.769531 160.195312 C 132.378906 160.507812 131.988281 160.820312 131.597656 161.132812 C 131.203125 161.441406 130.84375 161.792969 130.46875 162.121094 C 130.089844 162.445312 129.738281 162.800781 129.394531 163.152344 C 128.683594 163.839844 128.035156 164.566406 127.402344 165.265625 C 126.785156 165.976562 126.199219 166.679688 125.644531 167.34375 C 125.113281 168.027344 124.59375 168.667969 124.140625 169.273438 C 123.695312 169.886719 123.277344 170.441406 122.902344 170.929688 C 122.535156 171.425781 122.226562 171.871094 121.96875 172.226562 C 121.445312 172.945312 121.144531 173.355469 121.144531 173.355469 "/>
<g clip-path="url(#clip2)" clip-rule="nonzero">
<path style=" stroke:none;fill-rule:nonzero;fill:rgb(13.729858%,12.159729%,12.548828%);fill-opacity:1;" d="M 112.511719 161.878906 C 112.511719 161.878906 112.558594 161.640625 112.652344 161.195312 C 112.699219 160.972656 112.761719 160.695312 112.832031 160.375 C 112.890625 160.050781 112.988281 159.683594 113.109375 159.273438 C 113.230469 158.859375 113.359375 158.402344 113.503906 157.90625 C 113.671875 157.417969 113.855469 156.890625 114.054688 156.328125 C 114.253906 155.765625 114.515625 155.183594 114.765625 154.5625 C 115.015625 153.9375 115.359375 153.320312 115.671875 152.648438 C 116.003906 151.988281 116.390625 151.320312 116.777344 150.621094 C 116.992188 150.28125 117.207031 149.9375 117.429688 149.589844 C 117.644531 149.242188 117.871094 148.886719 118.125 148.546875 C 119.082031 147.136719 120.214844 145.738281 121.46875 144.359375 C 122.75 143.011719 124.160156 141.6875 125.695312 140.472656 C 127.242188 139.265625 128.902344 138.160156 130.632812 137.171875 C 132.378906 136.214844 134.191406 135.375 136.027344 134.6875 C 137.867188 134.011719 139.734375 133.507812 141.554688 133.121094 C 143.382812 132.773438 145.167969 132.535156 146.871094 132.460938 C 147.292969 132.425781 147.710938 132.417969 148.125 132.414062 C 148.539062 132.40625 148.941406 132.402344 149.34375 132.398438 C 150.140625 132.4375 150.914062 132.457031 151.648438 132.519531 C 152.382812 132.601562 153.089844 132.632812 153.753906 132.746094 C 154.417969 132.859375 155.046875 132.941406 155.632812 133.066406 C 156.21875 133.191406 156.765625 133.304688 157.265625 133.421875 C 157.761719 133.558594 158.21875 133.6875 158.632812 133.804688 C 159.042969 133.914062 159.40625 134.023438 159.71875 134.140625 C 160.03125 134.253906 160.296875 134.34375 160.511719 134.421875 C 160.941406 134.574219 161.171875 134.65625 161.171875 134.65625 C 161.171875 134.65625 160.929688 134.621094 160.476562 134.546875 C 160.027344 134.484375 159.375 134.347656 158.535156 134.253906 C 158.117188 134.203125 157.65625 134.144531 157.152344 134.085938 C 156.644531 134.039062 156.097656 133.996094 155.515625 133.945312 C 154.351562 133.871094 153.035156 133.835938 151.609375 133.847656 C 150.894531 133.859375 150.152344 133.914062 149.386719 133.949219 C 148.621094 134.035156 147.828125 134.0625 147.023438 134.183594 C 146.621094 134.238281 146.210938 134.292969 145.800781 134.351562 C 145.386719 134.414062 144.972656 134.503906 144.550781 134.578125 C 143.710938 134.71875 142.871094 134.9375 142.003906 135.125 C 140.296875 135.574219 138.554688 136.121094 136.828125 136.792969 C 135.113281 137.488281 133.40625 138.28125 131.761719 139.195312 C 130.125 140.117188 128.558594 141.152344 127.066406 142.25 C 125.589844 143.371094 124.214844 144.570312 122.9375 145.792969 C 121.695312 147.050781 120.511719 148.292969 119.507812 149.574219 C 118.980469 150.195312 118.546875 150.859375 118.070312 151.464844 C 117.640625 152.097656 117.203125 152.703125 116.824219 153.304688 C 116.066406 154.515625 115.40625 155.65625 114.863281 156.6875 C 114.597656 157.210938 114.351562 157.699219 114.125 158.152344 C 113.914062 158.613281 113.722656 159.035156 113.546875 159.417969 C 113.1875 160.183594 112.960938 160.816406 112.78125 161.234375 C 112.605469 161.652344 112.511719 161.878906 112.511719 161.878906 "/>
</g>
<g clip-path="url(#clip3)" clip-rule="nonzero">
<path style=" stroke:none;fill-rule:nonzero;fill:rgb(13.729858%,12.159729%,12.548828%);fill-opacity:1;" d="M 262.488281 161.878906 C 262.488281 161.878906 262.394531 161.652344 262.222656 161.234375 C 262.039062 160.816406 261.816406 160.179688 261.453125 159.417969 C 261.28125 159.035156 261.085938 158.613281 260.878906 158.152344 C 260.648438 157.699219 260.402344 157.210938 260.140625 156.6875 C 259.59375 155.65625 258.9375 154.515625 258.179688 153.304688 C 257.796875 152.703125 257.359375 152.097656 256.929688 151.464844 C 256.453125 150.859375 256.019531 150.195312 255.492188 149.574219 C 254.492188 148.289062 253.304688 147.050781 252.066406 145.792969 C 250.785156 144.566406 249.410156 143.371094 247.9375 142.25 C 246.445312 141.152344 244.875 140.117188 243.238281 139.195312 C 241.59375 138.28125 239.890625 137.488281 238.171875 136.792969 C 236.449219 136.121094 234.707031 135.574219 232.996094 135.125 C 232.132812 134.9375 231.289062 134.71875 230.449219 134.578125 C 230.03125 134.503906 229.617188 134.414062 229.203125 134.351562 C 228.789062 134.292969 228.382812 134.238281 227.980469 134.183594 C 227.171875 134.0625 226.382812 134.035156 225.617188 133.949219 C 224.851562 133.914062 224.109375 133.859375 223.394531 133.847656 C 221.96875 133.835938 220.652344 133.871094 219.484375 133.945312 C 218.902344 133.996094 218.355469 134.039062 217.851562 134.085938 C 217.347656 134.144531 216.882812 134.203125 216.46875 134.253906 C 215.625 134.347656 214.976562 134.484375 214.523438 134.546875 C 214.074219 134.621094 213.832031 134.65625 213.832031 134.65625 C 213.832031 134.65625 214.0625 134.574219 214.488281 134.421875 C 214.707031 134.34375 214.972656 134.253906 215.285156 134.140625 C 215.59375 134.023438 215.957031 133.914062 216.371094 133.804688 C 216.78125 133.6875 217.238281 133.558594 217.734375 133.421875 C 218.238281 133.304688 218.785156 133.191406 219.371094 133.066406 C 219.953125 132.941406 220.585938 132.859375 221.25 132.746094 C 221.910156 132.632812 222.617188 132.601562 223.351562 132.519531 C 224.089844 132.457031 224.859375 132.4375 225.660156 132.398438 C 226.058594 132.402344 226.464844 132.40625 226.878906 132.414062 C 227.289062 132.417969 227.710938 132.425781 228.132812 132.460938 C 229.835938 132.535156 231.617188 132.773438 233.449219 133.121094 C 235.269531 133.507812 237.136719 134.011719 238.976562 134.6875 C 240.8125 135.375 242.621094 136.214844 244.371094 137.171875 C 246.101562 138.160156 247.761719 139.265625 249.304688 140.472656 C 250.84375 141.6875 252.25 143.007812 253.535156 144.359375 C 254.785156 145.738281 255.921875 147.136719 256.878906 148.542969 C 257.128906 148.886719 257.355469 149.242188 257.574219 149.589844 C 257.792969 149.9375 258.011719 150.28125 258.226562 150.621094 C 258.609375 151.320312 258.996094 151.988281 259.328125 152.648438 C 259.644531 153.316406 259.984375 153.933594 260.234375 154.5625 C 260.484375 155.183594 260.746094 155.765625 260.945312 156.328125 C 261.144531 156.890625 261.328125 157.417969 261.5 157.90625 C 261.640625 158.402344 261.769531 158.859375 261.890625 159.273438 C 262.011719 159.683594 262.105469 160.050781 262.167969 160.375 C 262.238281 160.695312 262.296875 160.972656 262.347656 161.195312 C 262.441406 161.640625 262.488281 161.878906 262.488281 161.878906 "/>
</g>
<path style=" stroke:none;fill-rule:nonzero;fill:rgb(13.729858%,12.159729%,12.548828%);fill-opacity:1;" d="M 210.546875 171.300781 C 208.113281 182.804688 215.464844 194.097656 226.964844 196.53125 C 238.464844 198.960938 249.757812 191.613281 252.191406 180.113281 C 254.625 168.613281 247.273438 157.320312 235.773438 154.886719 C 224.273438 152.453125 212.980469 159.804688 210.546875 171.300781 "/>
<path style=" stroke:none;fill-rule:nonzero;fill:rgb(100%,100%,100%);fill-opacity:1;" d="M 213.832031 180.992188 C 213.832031 186.734375 218.492188 191.398438 224.234375 191.398438 C 229.984375 191.398438 234.640625 186.734375 234.640625 180.992188 C 234.640625 175.246094 229.984375 170.585938 224.234375 170.585938 C 218.492188 170.585938 213.832031 175.246094 213.832031 180.992188 "/>
<path style=" stroke:none;fill-rule:nonzero;fill:rgb(13.729858%,12.159729%,12.548828%);fill-opacity:1;" d="M 257.511719 172.539062 C 257.511719 172.539062 257.195312 172.140625 256.652344 171.441406 C 256.378906 171.089844 256.058594 170.65625 255.671875 170.175781 C 255.285156 169.695312 254.84375 169.15625 254.378906 168.558594 C 253.902344 167.96875 253.367188 167.347656 252.8125 166.683594 C 252.234375 166.035156 251.628906 165.355469 250.984375 164.664062 C 250.332031 163.984375 249.652344 163.28125 248.921875 162.617188 C 248.566406 162.277344 248.203125 161.933594 247.8125 161.621094 C 247.425781 161.308594 247.058594 160.96875 246.652344 160.671875 C 246.253906 160.371094 245.851562 160.074219 245.449219 159.777344 C 245.035156 159.507812 244.617188 159.234375 244.203125 158.96875 C 243.796875 158.691406 243.351562 158.488281 242.933594 158.246094 C 242.519531 157.996094 242.085938 157.796875 241.660156 157.605469 C 240.820312 157.1875 239.960938 156.882812 239.160156 156.570312 C 238.335938 156.3125 237.5625 156.035156 236.828125 155.871094 C 236.460938 155.777344 236.109375 155.6875 235.777344 155.601562 C 235.4375 155.53125 235.117188 155.464844 234.816406 155.398438 C 234.214844 155.265625 233.691406 155.160156 233.25 155.097656 C 232.378906 154.945312 231.878906 154.859375 231.878906 154.859375 C 231.878906 154.859375 232.382812 154.898438 233.269531 154.96875 C 233.714844 154.996094 234.25 155.066406 234.859375 155.15625 C 235.167969 155.195312 235.496094 155.242188 235.839844 155.289062 C 236.179688 155.355469 236.539062 155.429688 236.914062 155.507812 C 237.667969 155.636719 238.460938 155.882812 239.308594 156.105469 C 240.140625 156.390625 241.035156 156.652344 241.902344 157.066406 C 242.34375 157.257812 242.792969 157.449219 243.226562 157.695312 C 243.65625 157.929688 244.121094 158.136719 244.539062 158.417969 C 244.964844 158.6875 245.394531 158.960938 245.824219 159.234375 C 246.238281 159.539062 246.648438 159.839844 247.0625 160.144531 C 247.472656 160.453125 247.847656 160.800781 248.242188 161.125 C 248.636719 161.445312 249.003906 161.796875 249.363281 162.148438 C 250.109375 162.828125 250.765625 163.566406 251.417969 164.265625 C 252.054688 164.972656 252.632812 165.695312 253.1875 166.371094 C 253.714844 167.066406 254.226562 167.714844 254.675781 168.332031 C 255.574219 169.566406 256.273438 170.621094 256.757812 171.363281 C 257.234375 172.109375 257.511719 172.539062 257.511719 172.539062 "/>
<path style=" stroke:none;fill-rule:nonzero;fill:rgb(13.729858%,12.159729%,12.548828%);fill-opacity:1;" d="M 173.75 208.601562 C 182.625 217.476562 196.976562 217.492188 205.839844 208.632812 C 205.839844 208.632812 207.5 240.808594 189.761719 241.589844 C 189.761719 241.589844 173.039062 242.574219 173.75 208.601562 "/>
<path style=" stroke:none;fill-rule:nonzero;fill:rgb(100%,100%,100%);fill-opacity:1;" d="M 136.839844 177.257812 C 136.5 179.820312 137.445312 183.773438 130.988281 183.773438 C 137.402344 183.773438 136.375 187.996094 136.839844 190.289062 C 136.839844 183.523438 139.847656 184.300781 142.691406 183.773438 C 136.566406 183.703125 137.140625 179.757812 136.839844 177.257812 "/>
<path style=" stroke:none;fill-rule:nonzero;fill:rgb(13.729858%,12.159729%,12.548828%);fill-opacity:1;" d="M 132.421875 183.773438 C 136.398438 184.261719 136.597656 186.828125 136.765625 188.9375 C 136.773438 189.039062 136.78125 189.144531 136.789062 189.25 C 137.050781 184.390625 139.191406 184.136719 141.453125 183.867188 C 141.597656 183.851562 141.734375 183.835938 141.871094 183.816406 C 137.21875 183.46875 137.015625 180.582031 136.847656 178.234375 L 136.84375 178.164062 C 136.835938 178.273438 136.832031 178.386719 136.824219 178.5 C 136.710938 180.65625 136.570312 183.296875 132.421875 183.773438 Z M 136.839844 190.367188 L 136.765625 190.304688 C 136.679688 189.898438 136.648438 189.4375 136.609375 188.949219 C 136.429688 186.675781 136.210938 183.851562 130.988281 183.851562 L 130.992188 183.789062 L 130.988281 183.695312 L 130.992188 183.695312 C 136.394531 183.695312 136.539062 180.929688 136.664062 178.492188 C 136.691406 178.050781 136.710938 177.636719 136.761719 177.246094 L 136.839844 177.179688 L 136.917969 177.246094 C 136.957031 177.554688 136.980469 177.878906 137.003906 178.226562 C 137.175781 180.632812 137.390625 183.632812 142.691406 183.695312 L 142.769531 183.765625 L 142.707031 183.847656 C 142.296875 183.925781 141.875 183.976562 141.472656 184.023438 C 139.03125 184.3125 136.917969 184.5625 136.917969 190.289062 L 136.847656 190.367188 L 136.839844 190.367188 "/>
<path style=" stroke:none;fill-rule:nonzero;fill:rgb(100%,100%,100%);fill-opacity:1;" d="M 143.460938 157.933594 C 143.019531 161.296875 144.253906 166.488281 135.78125 166.488281 C 144.199219 166.488281 142.851562 172.027344 143.460938 175.039062 C 143.460938 166.15625 147.410156 167.179688 151.144531 166.488281 C 143.105469 166.394531 143.855469 161.210938 143.460938 157.933594 "/>
<path style=" stroke:none;fill-rule:nonzero;fill:rgb(13.729858%,12.159729%,12.548828%);fill-opacity:1;" d="M 137.664062 166.488281 C 142.882812 167.125 143.144531 170.5 143.363281 173.265625 C 143.375 173.402344 143.382812 173.542969 143.394531 173.675781 C 143.734375 167.296875 146.550781 166.964844 149.523438 166.609375 C 149.703125 166.585938 149.882812 166.566406 150.070312 166.542969 C 143.960938 166.085938 143.691406 162.296875 143.46875 159.214844 L 143.464844 159.125 C 143.453125 159.269531 143.449219 159.414062 143.441406 159.5625 C 143.292969 162.398438 143.109375 165.859375 137.664062 166.488281 Z M 143.460938 175.140625 C 143.414062 175.140625 143.371094 175.109375 143.363281 175.058594 C 143.253906 174.527344 143.207031 173.921875 143.15625 173.28125 C 142.921875 170.300781 142.632812 166.585938 135.78125 166.585938 L 135.78125 166.382812 C 142.875 166.382812 143.066406 162.753906 143.234375 159.554688 C 143.265625 158.976562 143.292969 158.429688 143.359375 157.917969 C 143.367188 157.867188 143.410156 157.828125 143.460938 157.828125 C 143.515625 157.828125 143.558594 157.867188 143.566406 157.917969 C 143.613281 158.324219 143.640625 158.75 143.675781 159.199219 C 143.902344 162.367188 144.183594 166.304688 151.144531 166.382812 C 151.199219 166.382812 151.242188 166.421875 151.246094 166.476562 C 151.253906 166.527344 151.21875 166.578125 151.164062 166.585938 C 150.621094 166.6875 150.074219 166.753906 149.546875 166.816406 C 146.339844 167.195312 143.566406 167.527344 143.566406 175.039062 C 143.566406 175.09375 143.527344 175.136719 143.472656 175.140625 L 143.460938 175.140625 "/>
<path style=" stroke:none;fill-rule:nonzero;fill:rgb(100%,100%,100%);fill-opacity:1;" d="M 243.050781 177.359375 C 243.390625 179.921875 242.445312 183.875 248.902344 183.875 C 242.492188 183.875 243.515625 188.097656 243.050781 190.390625 C 243.050781 183.628906 240.042969 184.40625 237.199219 183.875 C 243.324219 183.804688 242.753906 179.859375 243.050781 177.359375 "/>
<path style=" stroke:none;fill-rule:nonzero;fill:rgb(13.729858%,12.159729%,12.548828%);fill-opacity:1;" d="M 243.066406 178.601562 C 243.0625 178.492188 243.054688 178.378906 243.050781 178.269531 L 243.042969 178.339844 C 242.875 180.683594 242.671875 183.570312 238.019531 183.917969 C 238.15625 183.9375 238.296875 183.953125 238.4375 183.972656 C 240.699219 184.238281 242.84375 184.492188 243.101562 189.351562 C 243.109375 189.25 243.117188 189.144531 243.128906 189.039062 C 243.292969 186.933594 243.492188 184.363281 247.464844 183.878906 C 243.320312 183.398438 243.179688 180.761719 243.066406 178.601562 Z M 243.042969 190.472656 L 242.972656 190.390625 C 242.972656 184.667969 240.859375 184.417969 238.417969 184.125 C 238.011719 184.082031 237.597656 184.03125 237.1875 183.953125 L 237.121094 183.871094 L 237.195312 183.796875 C 242.5 183.738281 242.714844 180.738281 242.886719 178.328125 C 242.910156 177.984375 242.9375 177.660156 242.972656 177.351562 L 243.050781 177.28125 L 243.128906 177.351562 C 243.179688 177.738281 243.203125 178.15625 243.222656 178.597656 C 243.351562 181.03125 243.496094 183.796875 248.902344 183.796875 L 248.902344 183.953125 C 243.679688 183.953125 243.460938 186.78125 243.28125 189.050781 C 243.246094 189.539062 243.210938 190 243.125 190.40625 L 243.050781 190.472656 L 243.042969 190.472656 "/>
<path style=" stroke:none;fill-rule:nonzero;fill:rgb(100%,100%,100%);fill-opacity:1;" d="M 236.429688 158.035156 C 236.871094 161.402344 235.636719 166.589844 244.109375 166.589844 C 235.691406 166.589844 237.039062 172.132812 236.429688 175.140625 C 236.429688 166.261719 232.480469 167.28125 228.75 166.589844 C 236.789062 166.496094 236.039062 161.320312 236.429688 158.035156 "/>
<path style=" stroke:none;fill-rule:nonzero;fill:rgb(13.729858%,12.159729%,12.548828%);fill-opacity:1;" d="M 236.453125 159.667969 C 236.441406 159.519531 236.4375 159.371094 236.429688 159.226562 L 236.425781 159.316406 C 236.199219 162.398438 235.929688 166.1875 229.820312 166.644531 C 230.003906 166.671875 230.1875 166.691406 230.371094 166.710938 C 233.339844 167.066406 236.152344 167.402344 236.496094 173.78125 C 236.507812 173.644531 236.519531 173.507812 236.53125 173.367188 C 236.746094 170.601562 237.011719 167.226562 242.226562 166.589844 C 236.785156 165.964844 236.601562 162.5 236.453125 159.667969 Z M 236.417969 175.246094 C 236.367188 175.242188 236.324219 175.195312 236.324219 175.140625 C 236.324219 167.628906 233.550781 167.296875 230.34375 166.917969 C 229.816406 166.855469 229.265625 166.789062 228.730469 166.6875 C 228.675781 166.679688 228.640625 166.632812 228.644531 166.578125 C 228.648438 166.523438 228.691406 166.488281 228.746094 166.488281 C 235.707031 166.40625 235.988281 162.46875 236.214844 159.304688 C 236.25 158.851562 236.277344 158.425781 236.328125 158.023438 C 236.332031 157.972656 236.375 157.933594 236.429688 157.933594 C 236.476562 157.933594 236.523438 157.972656 236.53125 158.023438 C 236.597656 158.535156 236.628906 159.078125 236.65625 159.65625 C 236.824219 162.855469 237.011719 166.488281 244.109375 166.488281 L 244.109375 166.691406 C 237.257812 166.691406 236.96875 170.402344 236.734375 173.382812 C 236.683594 174.023438 236.640625 174.632812 236.527344 175.164062 C 236.519531 175.210938 236.476562 175.246094 236.429688 175.246094 L 236.417969 175.246094 "/>
</g>
</svg>
