<?xml version="1.0" encoding="UTF-8"?>
<svg xmlns="http://www.w3.org/2000/svg" xmlns:xlink="http://www.w3.org/1999/xlink" width="375pt" height="374.999991pt" viewBox="0 0 375 374.999991" version="1.2">
<defs>
<clipPath id="clip1">
  <path d="M 2 9.375 L 373 9.375 L 373 364 L 2 364 Z M 2 9.375 "/>
</clipPath>
<clipPath id="clip2">
  <path d="M 112.5 144 L 171 144 L 171 165 L 112.5 165 Z M 112.5 144 "/>
</clipPath>
<clipPath id="clip3">
  <path d="M 203 137.25 L 262.5 137.25 L 262.5 151 L 203 151 Z M 203 137.25 "/>
</clipPath>
<clipPath id="clip4">
  <path d="M 164 236 L 213 236 L 213 237.75 L 164 237.75 Z M 164 236 "/>
</clipPath>
</defs>
<g id="surface1">
<g clip-path="url(#clip1)" clip-rule="nonzero">
<path style=" stroke:none;fill-rule:nonzero;fill:rgb(97.648621%,77.249146%,37.249756%);fill-opacity:1;" d="M 370.800781 142.570312 C 366.941406 130.675781 355.949219 122.507812 343.4375 122.253906 L 246.941406 120.292969 L 215.261719 29.136719 C 211.144531 17.300781 199.996094 9.375 187.488281 9.375 C 174.980469 9.375 163.828125 17.300781 159.714844 29.136719 L 128.035156 120.292969 L 31.539062 122.253906 C 19.015625 122.507812 8.035156 130.675781 4.175781 142.570312 C 0.3125 154.464844 4.402344 167.515625 14.375 175.082031 L 91.289062 233.390625 L 63.339844 325.773438 C 59.695312 337.753906 64.070312 350.71875 74.210938 358.070312 C 84.328125 365.429688 98.003906 365.5625 108.261719 358.417969 L 187.488281 303.296875 L 266.703125 358.417969 C 271.765625 361.941406 277.636719 363.699219 283.503906 363.699219 C 289.578125 363.699219 295.640625 361.808594 300.789062 358.070312 C 310.914062 350.71875 315.269531 337.753906 311.660156 325.773438 L 283.699219 233.390625 L 360.613281 175.082031 C 370.574219 167.515625 374.675781 154.464844 370.800781 142.570312 "/>
</g>
<path style=" stroke:none;fill-rule:nonzero;fill:rgb(13.729858%,12.159729%,12.548828%);fill-opacity:1;" d="M 166.929688 189.027344 C 166.929688 201.398438 156.902344 211.425781 144.53125 211.425781 C 132.160156 211.425781 122.128906 201.398438 122.128906 189.027344 C 122.128906 176.652344 132.160156 166.625 144.53125 166.625 C 156.902344 166.625 166.929688 176.652344 166.929688 189.027344 "/>
<path style=" stroke:none;fill-rule:nonzero;fill:rgb(100%,100%,100%);fill-opacity:1;" d="M 163.570312 194.191406 C 163.570312 200.238281 158.667969 205.140625 152.621094 205.140625 C 146.570312 205.140625 141.664062 200.238281 141.664062 194.191406 C 141.664062 188.144531 146.570312 183.238281 152.621094 183.238281 C 158.667969 183.238281 163.570312 188.144531 163.570312 194.191406 "/>
<path style=" stroke:none;fill-rule:nonzero;fill:rgb(13.729858%,12.159729%,12.548828%);fill-opacity:1;" d="M 118.300781 180.066406 C 118.300781 180.066406 118.675781 179.6875 119.335938 179.027344 C 119.992188 178.363281 120.949219 177.433594 122.140625 176.359375 C 122.742188 175.824219 123.40625 175.269531 124.105469 174.667969 C 124.820312 174.09375 125.574219 173.476562 126.386719 172.886719 C 127.210938 172.308594 128.046875 171.695312 128.960938 171.15625 C 129.40625 170.875 129.859375 170.59375 130.339844 170.347656 C 130.816406 170.097656 131.277344 169.820312 131.765625 169.59375 C 132.257812 169.375 132.75 169.152344 133.238281 168.929688 C 133.738281 168.742188 134.242188 168.554688 134.742188 168.367188 C 135.234375 168.167969 135.75 168.058594 136.25 167.90625 C 136.746094 167.753906 137.25 167.648438 137.746094 167.550781 C 138.730469 167.3125 139.707031 167.234375 140.625 167.121094 C 141.546875 167.078125 142.414062 166.996094 143.222656 167.023438 C 143.621094 167.027344 144.007812 167.03125 144.371094 167.03125 C 144.738281 167.058594 145.085938 167.082031 145.410156 167.105469 C 146.0625 167.148438 146.625 167.195312 147.089844 167.257812 C 148.015625 167.378906 148.546875 167.445312 148.546875 167.445312 C 148.546875 167.445312 148.015625 167.425781 147.082031 167.390625 C 146.617188 167.359375 146.050781 167.351562 145.402344 167.355469 C 145.078125 167.355469 144.734375 167.355469 144.371094 167.355469 C 144.007812 167.371094 143.628906 167.386719 143.230469 167.402344 C 142.433594 167.410156 141.578125 167.527344 140.675781 167.609375 C 139.78125 167.757812 138.828125 167.882812 137.875 168.128906 C 137.390625 168.234375 136.898438 168.34375 136.417969 168.507812 C 136.175781 168.582031 135.933594 168.65625 135.683594 168.734375 C 135.4375 168.804688 135.191406 168.878906 134.953125 168.976562 C 134.46875 169.164062 133.984375 169.351562 133.492188 169.535156 C 133.015625 169.757812 132.539062 169.976562 132.058594 170.199219 C 131.578125 170.414062 131.125 170.683594 130.65625 170.925781 C 130.1875 171.164062 129.738281 171.433594 129.296875 171.710938 C 128.398438 172.234375 127.550781 172.8125 126.726562 173.367188 C 125.917969 173.941406 125.140625 174.511719 124.40625 175.050781 C 123.691406 175.617188 123.003906 176.140625 122.386719 176.644531 C 121.777344 177.160156 121.207031 177.621094 120.703125 178.027344 C 120.203125 178.441406 119.777344 178.816406 119.421875 179.121094 C 118.710938 179.722656 118.300781 180.066406 118.300781 180.066406 "/>
<g clip-path="url(#clip2)" clip-rule="nonzero">
<path style=" stroke:none;fill-rule:nonzero;fill:rgb(13.729858%,12.159729%,12.548828%);fill-opacity:1;" d="M 170.46875 144.9375 C 170.46875 144.9375 170.339844 145.160156 170.101562 145.574219 C 169.976562 145.78125 169.828125 146.035156 169.648438 146.332031 C 169.5625 146.484375 169.464844 146.640625 169.363281 146.8125 C 169.25 146.980469 169.128906 147.152344 169.003906 147.339844 C 168.75 147.710938 168.46875 148.125 168.164062 148.574219 C 167.828125 149.003906 167.46875 149.46875 167.085938 149.964844 C 166.703125 150.460938 166.246094 150.953125 165.789062 151.496094 C 165.335938 152.035156 164.789062 152.542969 164.253906 153.105469 C 163.703125 153.65625 163.097656 154.191406 162.480469 154.765625 C 162.15625 155.03125 161.828125 155.300781 161.492188 155.578125 C 161.15625 155.855469 160.816406 156.132812 160.449219 156.390625 C 159.03125 157.484375 157.4375 158.503906 155.734375 159.46875 C 154.007812 160.394531 152.167969 161.25 150.234375 161.960938 C 148.292969 162.65625 146.273438 163.214844 144.21875 163.632812 C 142.160156 164.015625 140.074219 164.257812 138.015625 164.34375 C 135.957031 164.417969 133.929688 164.3125 131.984375 164.101562 C 130.042969 163.851562 128.179688 163.503906 126.453125 163.023438 C 126.019531 162.921875 125.597656 162.789062 125.183594 162.660156 C 124.769531 162.53125 124.363281 162.402344 123.960938 162.277344 C 123.175781 161.976562 122.414062 161.707031 121.695312 161.40625 C 120.988281 161.082031 120.292969 160.820312 119.667969 160.492188 C 119.039062 160.160156 118.433594 159.875 117.890625 159.558594 C 117.347656 159.242188 116.839844 158.945312 116.371094 158.671875 C 115.921875 158.371094 115.503906 158.097656 115.132812 157.847656 C 114.941406 157.722656 114.769531 157.605469 114.601562 157.492188 C 114.441406 157.375 114.292969 157.261719 114.152344 157.15625 C 113.875 156.945312 113.640625 156.765625 113.449219 156.617188 C 113.070312 156.324219 112.867188 156.167969 112.867188 156.167969 C 112.867188 156.167969 113.09375 156.289062 113.523438 156.507812 C 113.949219 156.722656 114.554688 157.078125 115.363281 157.445312 C 115.765625 157.636719 116.207031 157.847656 116.691406 158.078125 C 117.179688 158.285156 117.710938 158.515625 118.277344 158.757812 C 119.417969 159.21875 120.71875 159.691406 122.152344 160.148438 C 122.871094 160.378906 123.628906 160.566406 124.410156 160.785156 C 125.203125 160.953125 126.003906 161.1875 126.847656 161.332031 C 127.269531 161.410156 127.695312 161.488281 128.128906 161.570312 C 128.5625 161.644531 129.003906 161.691406 129.449219 161.753906 C 130.339844 161.894531 131.253906 161.949219 132.179688 162.046875 C 134.039062 162.164062 135.960938 162.191406 137.914062 162.089844 C 139.859375 161.957031 141.828125 161.722656 143.773438 161.351562 C 145.71875 160.964844 147.632812 160.445312 149.484375 159.832031 C 151.328125 159.195312 153.101562 158.449219 154.78125 157.644531 C 156.433594 156.789062 158.027344 155.933594 159.453125 154.976562 C 160.183594 154.527344 160.835938 154.003906 161.511719 153.554688 C 162.148438 153.058594 162.785156 152.597656 163.363281 152.117188 C 164.519531 151.152344 165.546875 150.226562 166.429688 149.367188 C 166.863281 148.933594 167.269531 148.523438 167.644531 148.144531 C 168.003906 147.75 168.335938 147.390625 168.636719 147.0625 C 169.246094 146.417969 169.675781 145.855469 169.992188 145.496094 C 170.304688 145.132812 170.46875 144.9375 170.46875 144.9375 "/>
</g>
<path style=" stroke:none;fill-rule:nonzero;fill:rgb(13.729858%,12.159729%,12.548828%);fill-opacity:1;" d="M 210.4375 189.027344 C 210.4375 201.398438 220.464844 211.425781 232.839844 211.425781 C 245.210938 211.425781 255.242188 201.398438 255.242188 189.027344 C 255.242188 176.652344 245.210938 166.625 232.839844 166.625 C 220.464844 166.625 210.4375 176.652344 210.4375 189.027344 "/>
<path style=" stroke:none;fill-rule:nonzero;fill:rgb(100%,100%,100%);fill-opacity:1;" d="M 214.421875 194.191406 C 214.421875 200.238281 219.324219 205.140625 225.371094 205.140625 C 231.421875 205.140625 236.324219 200.238281 236.324219 194.191406 C 236.324219 188.144531 231.421875 183.238281 225.371094 183.238281 C 219.324219 183.238281 214.421875 188.144531 214.421875 194.191406 "/>
<path style=" stroke:none;fill-rule:nonzero;fill:rgb(13.729858%,12.159729%,12.548828%);fill-opacity:1;" d="M 259.066406 180.066406 C 259.066406 180.066406 258.65625 179.722656 257.945312 179.121094 C 257.589844 178.816406 257.164062 178.441406 256.664062 178.027344 C 256.160156 177.621094 255.589844 177.15625 254.980469 176.644531 C 254.363281 176.140625 253.679688 175.617188 252.960938 175.050781 C 252.226562 174.507812 251.453125 173.941406 250.640625 173.367188 C 249.816406 172.808594 248.96875 172.234375 248.070312 171.707031 C 247.628906 171.433594 247.179688 171.160156 246.714844 170.921875 C 246.242188 170.683594 245.789062 170.414062 245.3125 170.199219 C 244.832031 169.976562 244.351562 169.757812 243.878906 169.535156 C 243.386719 169.347656 242.898438 169.164062 242.414062 168.976562 C 242.175781 168.878906 241.929688 168.804688 241.679688 168.730469 C 241.4375 168.65625 241.191406 168.582031 240.949219 168.507812 C 240.46875 168.34375 239.976562 168.234375 239.496094 168.125 C 238.539062 167.882812 237.589844 167.757812 236.691406 167.609375 C 235.789062 167.527344 234.933594 167.410156 234.136719 167.402344 C 233.742188 167.386719 233.359375 167.371094 232.996094 167.355469 C 232.632812 167.355469 232.289062 167.355469 231.964844 167.355469 C 231.316406 167.351562 230.75 167.359375 230.289062 167.390625 C 229.355469 167.425781 228.820312 167.445312 228.820312 167.445312 C 228.820312 167.445312 229.351562 167.378906 230.277344 167.257812 C 230.742188 167.195312 231.304688 167.148438 231.957031 167.105469 C 232.28125 167.082031 232.628906 167.058594 232.992188 167.03125 C 233.359375 167.03125 233.746094 167.027344 234.144531 167.023438 C 234.949219 166.996094 235.820312 167.078125 236.746094 167.121094 C 237.660156 167.234375 238.636719 167.3125 239.621094 167.550781 C 240.117188 167.648438 240.621094 167.75 241.117188 167.90625 C 241.617188 168.058594 242.136719 168.167969 242.628906 168.367188 C 243.125 168.554688 243.628906 168.742188 244.132812 168.929688 C 244.621094 169.152344 245.109375 169.371094 245.601562 169.59375 C 246.09375 169.820312 246.554688 170.097656 247.027344 170.347656 C 247.507812 170.59375 247.960938 170.875 248.40625 171.15625 C 249.320312 171.691406 250.160156 172.308594 250.980469 172.886719 C 251.792969 173.476562 252.546875 174.09375 253.261719 174.667969 C 253.960938 175.269531 254.628906 175.824219 255.226562 176.359375 C 256.417969 177.433594 257.375 178.363281 258.03125 179.023438 C 258.691406 179.6875 259.066406 180.066406 259.066406 180.066406 "/>
<g clip-path="url(#clip3)" clip-rule="nonzero">
<path style=" stroke:none;fill-rule:nonzero;fill:rgb(13.729858%,12.159729%,12.548828%);fill-opacity:1;" d="M 262.179688 150.554688 C 262.179688 150.554688 261.980469 150.394531 261.605469 150.097656 C 261.226562 149.804688 260.699219 149.335938 259.976562 148.820312 C 259.621094 148.554688 259.226562 148.265625 258.796875 147.945312 C 258.355469 147.648438 257.878906 147.324219 257.371094 146.976562 C 256.339844 146.304688 255.148438 145.59375 253.832031 144.867188 C 253.171875 144.507812 252.460938 144.175781 251.742188 143.8125 C 250.992188 143.5 250.253906 143.113281 249.449219 142.808594 C 247.867188 142.140625 246.140625 141.605469 244.351562 141.085938 C 242.546875 140.617188 240.667969 140.222656 238.734375 139.949219 C 236.796875 139.707031 234.820312 139.558594 232.839844 139.554688 C 230.855469 139.558594 228.878906 139.707031 226.945312 139.953125 C 225.011719 140.226562 223.128906 140.617188 221.324219 141.089844 C 220.4375 141.359375 219.546875 141.59375 218.703125 141.898438 C 218.277344 142.042969 217.851562 142.179688 217.441406 142.332031 C 217.03125 142.496094 216.628906 142.652344 216.230469 142.8125 C 215.425781 143.113281 214.6875 143.5 213.9375 143.8125 C 213.21875 144.175781 212.507812 144.511719 211.847656 144.871094 C 210.53125 145.59375 209.34375 146.304688 208.308594 146.980469 C 207.800781 147.324219 207.324219 147.648438 206.882812 147.949219 C 206.453125 148.265625 206.058594 148.558594 205.699219 148.820312 C 204.976562 149.339844 204.453125 149.804688 204.074219 150.097656 C 203.695312 150.394531 203.496094 150.554688 203.496094 150.554688 C 203.496094 150.554688 203.664062 150.363281 203.980469 150 C 204.140625 149.820312 204.335938 149.597656 204.570312 149.339844 C 204.683594 149.210938 204.808594 149.070312 204.945312 148.921875 C 205.085938 148.78125 205.234375 148.632812 205.398438 148.472656 C 205.714844 148.160156 206.070312 147.808594 206.457031 147.425781 C 206.867188 147.066406 207.304688 146.679688 207.777344 146.265625 C 208.25 145.851562 208.789062 145.453125 209.339844 145.011719 C 209.894531 144.566406 210.527344 144.175781 211.15625 143.722656 C 211.804688 143.289062 212.503906 142.878906 213.214844 142.433594 C 213.585938 142.234375 213.960938 142.03125 214.34375 141.824219 C 214.726562 141.617188 215.113281 141.410156 215.519531 141.226562 C 217.121094 140.421875 218.882812 139.730469 220.738281 139.109375 C 222.609375 138.53125 224.578125 138.042969 226.617188 137.71875 C 228.652344 137.40625 230.742188 137.246094 232.839844 137.226562 C 234.933594 137.246094 237.023438 137.40625 239.0625 137.71875 C 241.097656 138.046875 243.070312 138.535156 244.9375 139.113281 C 246.792969 139.734375 248.554688 140.429688 250.15625 141.226562 C 250.5625 141.414062 250.953125 141.621094 251.332031 141.828125 C 251.714844 142.035156 252.089844 142.238281 252.460938 142.4375 C 253.171875 142.882812 253.871094 143.292969 254.519531 143.726562 C 255.148438 144.179688 255.78125 144.570312 256.335938 145.015625 C 256.886719 145.457031 257.425781 145.851562 257.898438 146.265625 C 258.371094 146.683594 258.8125 147.066406 259.21875 147.425781 C 259.609375 147.808594 259.960938 148.160156 260.285156 148.476562 C 260.445312 148.636719 260.59375 148.785156 260.738281 148.925781 C 260.871094 149.074219 260.996094 149.214844 261.109375 149.339844 C 261.339844 149.601562 261.539062 149.824219 261.699219 150 C 262.011719 150.363281 262.179688 150.554688 262.179688 150.554688 "/>
</g>
<g clip-path="url(#clip4)" clip-rule="nonzero">
<path style=" stroke:none;fill-rule:nonzero;fill:rgb(13.729858%,12.159729%,12.548828%);fill-opacity:1;" d="M 164.664062 237.15625 C 164.664062 237.15625 165.402344 237.101562 166.703125 237.042969 C 168 236.988281 169.855469 236.882812 172.078125 236.816406 C 174.304688 236.738281 176.898438 236.675781 179.679688 236.632812 C 181.070312 236.617188 182.507812 236.582031 183.964844 236.582031 C 185.425781 236.574219 186.910156 236.566406 188.394531 236.5625 C 189.875 236.566406 191.359375 236.574219 192.820312 236.582031 C 194.277344 236.582031 195.714844 236.617188 197.105469 236.632812 C 199.886719 236.671875 202.480469 236.738281 204.707031 236.8125 C 206.929688 236.878906 208.785156 236.988281 210.082031 237.042969 C 211.382812 237.101562 212.121094 237.15625 212.121094 237.15625 C 212.121094 237.15625 211.382812 237.210938 210.082031 237.273438 C 208.785156 237.324219 206.929688 237.429688 204.707031 237.5 C 202.480469 237.574219 199.886719 237.636719 197.105469 237.679688 C 195.714844 237.695312 194.277344 237.730469 192.820312 237.730469 C 191.359375 237.738281 189.875 237.746094 188.394531 237.75 C 186.910156 237.746094 185.425781 237.738281 183.964844 237.730469 C 182.507812 237.726562 181.070312 237.695312 179.679688 237.679688 C 176.898438 237.636719 174.304688 237.574219 172.078125 237.496094 C 169.855469 237.429688 168 237.324219 166.703125 237.273438 C 165.402344 237.207031 164.664062 237.15625 164.664062 237.15625 "/>
</g>
</g>
</svg>
