<?xml version="1.0" encoding="UTF-8"?>
<svg xmlns="http://www.w3.org/2000/svg" xmlns:xlink="http://www.w3.org/1999/xlink" width="375pt" height="374.999991pt" viewBox="0 0 375 374.999991" version="1.2">
<defs>
<clipPath id="clip1">
  <path d="M 2 9.375 L 373 9.375 L 373 364 L 2 364 Z M 2 9.375 "/>
</clipPath>
<clipPath id="clip2">
  <path d="M 112.5 160 L 171 160 L 171 219 L 112.5 219 Z M 112.5 160 "/>
</clipPath>
<clipPath id="clip3">
  <path d="M 204 160 L 262.5 160 L 262.5 219 L 204 219 Z M 204 160 "/>
</clipPath>
<clipPath id="clip4">
  <path d="M 123 139.125 L 169 139.125 L 169 159 L 123 159 Z M 123 139.125 "/>
</clipPath>
<clipPath id="clip5">
  <path d="M 210 139.125 L 256 139.125 L 256 159 L 210 159 Z M 210 139.125 "/>
</clipPath>
<clipPath id="clip6">
  <path d="M 176 221 L 199 221 L 199 235.875 L 176 235.875 Z M 176 221 "/>
</clipPath>
</defs>
<g id="surface1">
<g clip-path="url(#clip1)" clip-rule="nonzero">
<path style=" stroke:none;fill-rule:nonzero;fill:rgb(97.648621%,77.249146%,37.249756%);fill-opacity:1;" d="M 370.800781 142.570312 C 366.941406 130.675781 355.949219 122.507812 343.4375 122.253906 L 246.941406 120.292969 L 215.261719 29.136719 C 211.144531 17.300781 199.996094 9.375 187.488281 9.375 C 174.980469 9.375 163.828125 17.300781 159.714844 29.136719 L 128.035156 120.292969 L 31.539062 122.253906 C 19.015625 122.507812 8.035156 130.675781 4.175781 142.570312 C 0.3125 154.464844 4.402344 167.515625 14.375 175.082031 L 91.289062 233.390625 L 63.339844 325.773438 C 59.695312 337.753906 64.070312 350.71875 74.210938 358.070312 C 84.328125 365.429688 98.003906 365.5625 108.261719 358.417969 L 187.488281 303.296875 L 266.703125 358.417969 C 271.765625 361.941406 277.636719 363.699219 283.503906 363.699219 C 289.578125 363.699219 295.640625 361.808594 300.789062 358.070312 C 310.914062 350.71875 315.269531 337.753906 311.660156 325.773438 L 283.699219 233.390625 L 360.613281 175.082031 C 370.574219 167.515625 374.675781 154.464844 370.800781 142.570312 "/>
</g>
<g clip-path="url(#clip2)" clip-rule="nonzero">
<path style=" stroke:none;fill-rule:nonzero;fill:rgb(13.729858%,12.159729%,12.548828%);fill-opacity:1;" d="M 170.820312 189.804688 C 170.820312 205.902344 157.769531 218.957031 141.667969 218.957031 C 125.566406 218.957031 112.515625 205.902344 112.515625 189.804688 C 112.515625 173.703125 125.566406 160.652344 141.667969 160.652344 C 157.769531 160.652344 170.820312 173.703125 170.820312 189.804688 "/>
</g>
<path style=" stroke:none;fill-rule:nonzero;fill:rgb(19.60907%,18.429565%,18.818665%);fill-opacity:1;" d="M 153.789062 169.460938 C 153.90625 169.710938 154.011719 169.972656 154.109375 170.25 C 158.519531 183.039062 157.722656 195.292969 145.402344 203.28125 C 139.105469 207.367188 131.855469 208.101562 124.945312 206.566406 C 129.230469 210.847656 135.132812 213.5 141.667969 213.5 C 154.753906 213.5 165.363281 202.890625 165.363281 189.804688 C 165.363281 181.148438 160.71875 173.597656 153.789062 169.460938 "/>
<path style=" stroke:none;fill-rule:nonzero;fill:rgb(100%,100%,100%);fill-opacity:1;" d="M 148.394531 183.324219 C 148.394531 190.617188 142.480469 196.53125 135.1875 196.53125 C 127.894531 196.53125 121.984375 190.617188 121.984375 183.324219 C 121.984375 176.03125 127.894531 170.117188 135.1875 170.117188 C 142.480469 170.117188 148.394531 176.03125 148.394531 183.324219 "/>
<path style=" stroke:none;fill-rule:nonzero;fill:rgb(100%,100%,100%);fill-opacity:1;" d="M 129.457031 200.019531 C 129.457031 201.667969 128.117188 203.007812 126.46875 203.007812 C 124.816406 203.007812 123.476562 201.667969 123.476562 200.019531 C 123.476562 198.367188 124.816406 197.027344 126.46875 197.027344 C 128.117188 197.027344 129.457031 198.367188 129.457031 200.019531 "/>
<path style=" stroke:none;fill-rule:nonzero;fill:rgb(100%,100%,100%);fill-opacity:1;" d="M 147.648438 168.375 C 147.648438 170.027344 146.308594 171.363281 144.65625 171.363281 C 143.007812 171.363281 141.667969 170.027344 141.667969 168.375 C 141.667969 166.722656 143.007812 165.386719 144.65625 165.386719 C 146.308594 165.386719 147.648438 166.722656 147.648438 168.375 "/>
<path style=" stroke:none;fill-rule:nonzero;fill:rgb(100%,100%,100%);fill-opacity:1;" d="M 152.632812 174.664062 C 152.632812 175.835938 151.683594 176.785156 150.511719 176.785156 C 149.34375 176.785156 148.394531 175.835938 148.394531 174.664062 C 148.394531 173.496094 149.34375 172.546875 150.511719 172.546875 C 151.683594 172.546875 152.632812 173.496094 152.632812 174.664062 "/>
<g clip-path="url(#clip3)" clip-rule="nonzero">
<path style=" stroke:none;fill-rule:nonzero;fill:rgb(13.729858%,12.159729%,12.548828%);fill-opacity:1;" d="M 262.511719 189.804688 C 262.511719 205.902344 249.460938 218.957031 233.359375 218.957031 C 217.261719 218.957031 204.207031 205.902344 204.207031 189.804688 C 204.207031 173.703125 217.261719 160.652344 233.359375 160.652344 C 249.460938 160.652344 262.511719 173.703125 262.511719 189.804688 "/>
</g>
<path style=" stroke:none;fill-rule:nonzero;fill:rgb(19.60907%,18.429565%,18.818665%);fill-opacity:1;" d="M 245.484375 169.460938 C 245.601562 169.710938 245.707031 169.972656 245.800781 170.25 C 250.210938 183.039062 249.414062 195.292969 237.09375 203.28125 C 230.800781 207.367188 223.546875 208.101562 216.640625 206.566406 C 220.921875 210.847656 226.824219 213.5 233.359375 213.5 C 246.449219 213.5 257.054688 202.890625 257.054688 189.804688 C 257.054688 181.148438 252.410156 173.597656 245.484375 169.460938 "/>
<path style=" stroke:none;fill-rule:nonzero;fill:rgb(100%,100%,100%);fill-opacity:1;" d="M 240.085938 183.324219 C 240.085938 190.617188 234.175781 196.53125 226.882812 196.53125 C 219.589844 196.53125 213.675781 190.617188 213.675781 183.324219 C 213.675781 176.03125 219.589844 170.117188 226.882812 170.117188 C 234.175781 170.117188 240.085938 176.03125 240.085938 183.324219 "/>
<path style=" stroke:none;fill-rule:nonzero;fill:rgb(100%,100%,100%);fill-opacity:1;" d="M 221.152344 200.019531 C 221.152344 201.667969 219.8125 203.007812 218.160156 203.007812 C 216.511719 203.007812 215.171875 201.667969 215.171875 200.019531 C 215.171875 198.367188 216.511719 197.027344 218.160156 197.027344 C 219.8125 197.027344 221.152344 198.367188 221.152344 200.019531 "/>
<path style=" stroke:none;fill-rule:nonzero;fill:rgb(100%,100%,100%);fill-opacity:1;" d="M 239.339844 168.375 C 239.339844 170.027344 238 171.363281 236.351562 171.363281 C 234.699219 171.363281 233.359375 170.027344 233.359375 168.375 C 233.359375 166.722656 234.699219 165.386719 236.351562 165.386719 C 238 165.386719 239.339844 166.722656 239.339844 168.375 "/>
<path style=" stroke:none;fill-rule:nonzero;fill:rgb(100%,100%,100%);fill-opacity:1;" d="M 244.324219 174.664062 C 244.324219 175.835938 243.375 176.785156 242.207031 176.785156 C 241.035156 176.785156 240.085938 175.835938 240.085938 174.664062 C 240.085938 173.496094 241.035156 172.546875 242.207031 172.546875 C 243.375 172.546875 244.324219 173.496094 244.324219 174.664062 "/>
<g clip-path="url(#clip4)" clip-rule="nonzero">
<path style=" stroke:none;fill-rule:nonzero;fill:rgb(13.729858%,12.159729%,12.548828%);fill-opacity:1;" d="M 133.820312 158.421875 C 131.542969 158.421875 129.175781 158.339844 126.722656 158.171875 C 124.746094 158.035156 123.253906 156.324219 123.386719 154.347656 C 123.523438 152.367188 125.21875 150.875 127.210938 151.011719 C 155.953125 152.96875 162.074219 141.894531 162.125 141.78125 C 162.976562 139.988281 165.121094 139.234375 166.90625 140.082031 C 168.695312 140.933594 169.457031 143.074219 168.605469 144.863281 C 168.390625 145.316406 166.320312 149.371094 159.898438 152.917969 C 153.265625 156.578125 144.511719 158.421875 133.820312 158.421875 "/>
</g>
<g clip-path="url(#clip5)" clip-rule="nonzero">
<path style=" stroke:none;fill-rule:nonzero;fill:rgb(13.729858%,12.159729%,12.548828%);fill-opacity:1;" d="M 245.21875 158.421875 C 234.527344 158.421875 225.777344 156.578125 219.144531 152.917969 C 212.71875 149.371094 210.652344 145.316406 210.4375 144.863281 C 209.585938 143.074219 210.34375 140.933594 212.132812 140.082031 C 213.898438 139.238281 216.011719 139.976562 216.886719 141.71875 C 217.070312 142.046875 223.480469 152.953125 251.828125 151.011719 C 253.816406 150.878906 255.515625 152.371094 255.652344 154.347656 C 255.789062 156.324219 254.296875 158.035156 252.320312 158.171875 C 249.867188 158.339844 247.496094 158.421875 245.21875 158.421875 "/>
</g>
<g clip-path="url(#clip6)" clip-rule="nonzero">
<path style=" stroke:none;fill-rule:nonzero;fill:rgb(13.729858%,12.159729%,12.548828%);fill-opacity:1;" d="M 179.589844 235.265625 C 179.097656 235.265625 178.601562 235.164062 178.128906 234.953125 C 176.320312 234.144531 175.507812 232.023438 176.3125 230.214844 C 176.6875 229.375 180.152344 222.011719 186.496094 221.625 C 190.628906 221.359375 194.496094 224.132812 197.917969 229.832031 C 198.933594 231.53125 198.382812 233.734375 196.6875 234.753906 C 194.988281 235.773438 192.78125 235.222656 191.761719 233.523438 C 189.617188 229.949219 187.832031 228.792969 186.929688 228.789062 C 185.480469 228.875 183.542969 231.625 182.867188 233.136719 C 182.269531 234.472656 180.960938 235.265625 179.589844 235.265625 "/>
</g>
<path style=" stroke:none;fill-rule:nonzero;fill:rgb(28.62854%,64.309692%,87.838745%);fill-opacity:1;" d="M 120.414062 221.699219 C 120.414062 225.691406 127.625 228.925781 136.523438 228.925781 C 145.417969 228.925781 152.632812 225.691406 152.632812 221.699219 C 152.632812 217.707031 145.417969 214.472656 136.523438 214.472656 C 127.625 214.472656 120.414062 217.707031 120.414062 221.699219 "/>
<path style=" stroke:none;fill-rule:nonzero;fill:rgb(49.01886%,69.018555%,89.019775%);fill-opacity:1;" d="M 121.984375 221.699219 C 121.984375 224.421875 125.238281 226.632812 129.257812 226.632812 C 133.277344 226.632812 136.535156 224.421875 136.535156 221.699219 C 136.535156 218.972656 133.277344 216.765625 129.257812 216.765625 C 125.238281 216.765625 121.984375 218.972656 121.984375 221.699219 "/>
<path style=" stroke:none;fill-rule:nonzero;fill:rgb(28.62854%,64.309692%,87.838745%);fill-opacity:1;" d="M 256.195312 220.726562 C 256.195312 224.71875 248.984375 227.953125 240.085938 227.953125 C 231.191406 227.953125 223.980469 224.71875 223.980469 220.726562 C 223.980469 216.734375 231.191406 213.5 240.085938 213.5 C 248.984375 213.5 256.195312 216.734375 256.195312 220.726562 "/>
<path style=" stroke:none;fill-rule:nonzero;fill:rgb(49.01886%,69.018555%,89.019775%);fill-opacity:1;" d="M 254.625 220.726562 C 254.625 223.449219 251.371094 225.660156 247.351562 225.660156 C 243.332031 225.660156 240.074219 223.449219 240.074219 220.726562 C 240.074219 218.003906 243.332031 215.792969 247.351562 215.792969 C 251.371094 215.792969 254.625 218.003906 254.625 220.726562 "/>
</g>
</svg>
