<?xml version="1.0" encoding="UTF-8"?>
<svg xmlns="http://www.w3.org/2000/svg" xmlns:xlink="http://www.w3.org/1999/xlink" width="375pt" height="374.999991pt" viewBox="0 0 375 374.999991" version="1.2">
<defs>
<clipPath id="clip1">
  <path d="M 2 9.375 L 373 9.375 L 373 364 L 2 364 Z M 2 9.375 "/>
</clipPath>
<clipPath id="clip2">
  <path d="M 121 128.34375 L 158 128.34375 L 158 176 L 121 176 Z M 121 128.34375 "/>
</clipPath>
<clipPath id="clip3">
  <path d="M 217 128.34375 L 254 128.34375 L 254 176 L 217 176 Z M 217 128.34375 "/>
</clipPath>
<clipPath id="clip4">
  <path d="M 112.5 182 L 152 182 L 152 199 L 112.5 199 Z M 112.5 182 "/>
</clipPath>
<clipPath id="clip5">
  <path d="M 223 182 L 262.5 182 L 262.5 199 L 223 199 Z M 223 182 "/>
</clipPath>
<clipPath id="clip6">
  <path d="M 158 191 L 214 191 L 214 246.84375 L 158 246.84375 Z M 158 191 "/>
</clipPath>
</defs>
<g id="surface1">
<g clip-path="url(#clip1)" clip-rule="nonzero">
<path style=" stroke:none;fill-rule:nonzero;fill:rgb(97.648621%,77.249146%,37.249756%);fill-opacity:1;" d="M 370.800781 142.570312 C 366.941406 130.675781 355.949219 122.507812 343.4375 122.253906 L 246.941406 120.292969 L 215.261719 29.136719 C 211.144531 17.300781 199.996094 9.375 187.488281 9.375 C 174.980469 9.375 163.828125 17.300781 159.714844 29.136719 L 128.035156 120.292969 L 31.539062 122.253906 C 19.015625 122.507812 8.035156 130.675781 4.175781 142.570312 C 0.3125 154.464844 4.402344 167.515625 14.375 175.082031 L 91.289062 233.390625 L 63.339844 325.773438 C 59.695312 337.753906 64.070312 350.71875 74.210938 358.070312 C 84.328125 365.429688 98.003906 365.5625 108.261719 358.417969 L 187.488281 303.296875 L 266.703125 358.417969 C 271.765625 361.941406 277.636719 363.699219 283.503906 363.699219 C 289.578125 363.699219 295.640625 361.808594 300.789062 358.070312 C 310.914062 350.71875 315.269531 337.753906 311.660156 325.773438 L 283.699219 233.390625 L 360.613281 175.082031 C 370.574219 167.515625 374.675781 154.464844 370.800781 142.570312 "/>
</g>
<g clip-path="url(#clip2)" clip-rule="nonzero">
<path style=" stroke:none;fill-rule:nonzero;fill:rgb(9.01947%,3.919983%,3.138733%);fill-opacity:1;" d="M 157.835938 151.953125 C 157.835938 164.898438 149.683594 175.398438 139.628906 175.398438 C 129.574219 175.398438 121.421875 164.898438 121.421875 151.953125 C 121.421875 139.003906 129.574219 128.507812 139.628906 128.507812 C 149.683594 128.507812 157.835938 139.003906 157.835938 151.953125 "/>
</g>
<path style=" stroke:none;fill-rule:nonzero;fill:rgb(100%,100%,100%);fill-opacity:1;" d="M 149.578125 139.460938 C 151.753906 142.664062 151.503906 146.636719 149.019531 148.332031 C 146.53125 150.027344 142.753906 148.804688 140.578125 145.605469 C 138.398438 142.40625 138.648438 138.4375 141.132812 136.738281 C 143.621094 135.042969 147.398438 136.261719 149.578125 139.460938 "/>
<g clip-path="url(#clip3)" clip-rule="nonzero">
<path style=" stroke:none;fill-rule:nonzero;fill:rgb(9.01947%,3.919983%,3.138733%);fill-opacity:1;" d="M 217.164062 151.953125 C 217.164062 164.898438 225.3125 175.398438 235.367188 175.398438 C 245.425781 175.398438 253.574219 164.898438 253.574219 151.953125 C 253.574219 139.003906 245.425781 128.507812 235.367188 128.507812 C 225.3125 128.507812 217.164062 139.003906 217.164062 151.953125 "/>
</g>
<path style=" stroke:none;fill-rule:nonzero;fill:rgb(100%,100%,100%);fill-opacity:1;" d="M 246.390625 139.460938 C 248.570312 142.664062 248.320312 146.636719 245.832031 148.332031 C 243.347656 150.027344 239.566406 148.804688 237.390625 145.605469 C 235.210938 142.40625 235.460938 138.4375 237.945312 136.738281 C 240.433594 135.042969 244.214844 136.261719 246.390625 139.460938 "/>
<g clip-path="url(#clip4)" clip-rule="nonzero">
<path style=" stroke:none;fill-rule:nonzero;fill:rgb(98.429871%,33.729553%,39.99939%);fill-opacity:1;" d="M 151.664062 190.453125 C 151.664062 194.882812 142.894531 198.46875 132.078125 198.46875 C 121.261719 198.46875 112.496094 194.882812 112.496094 190.453125 C 112.496094 186.027344 121.261719 182.4375 132.078125 182.4375 C 142.894531 182.4375 151.664062 186.027344 151.664062 190.453125 "/>
</g>
<g clip-path="url(#clip5)" clip-rule="nonzero">
<path style=" stroke:none;fill-rule:nonzero;fill:rgb(98.429871%,33.729553%,39.99939%);fill-opacity:1;" d="M 262.503906 190.453125 C 262.503906 194.882812 253.738281 198.46875 242.921875 198.46875 C 232.105469 198.46875 223.335938 194.882812 223.335938 190.453125 C 223.335938 186.027344 232.105469 182.4375 242.921875 182.4375 C 253.738281 182.4375 262.503906 186.027344 262.503906 190.453125 "/>
</g>
<g clip-path="url(#clip6)" clip-rule="nonzero">
<path style=" stroke:none;fill-rule:nonzero;fill:rgb(9.01947%,3.919983%,3.138733%);fill-opacity:1;" d="M 213.890625 219.253906 C 213.890625 234.4375 201.601562 246.742188 186.445312 246.742188 C 171.285156 246.742188 158.996094 234.4375 158.996094 219.253906 C 158.996094 204.070312 171.285156 191.765625 186.445312 191.765625 C 201.601562 191.765625 213.890625 204.070312 213.890625 219.253906 "/>
</g>
<path style=" stroke:none;fill-rule:nonzero;fill:rgb(23.919678%,1.959229%,3.138733%);fill-opacity:1;" d="M 209.550781 219.253906 C 209.550781 232.03125 199.203125 242.394531 186.445312 242.394531 C 173.6875 242.394531 163.339844 232.03125 163.339844 219.253906 C 163.339844 206.476562 173.6875 196.113281 186.445312 196.113281 C 199.203125 196.113281 209.550781 206.476562 209.550781 219.253906 "/>
<path style=" stroke:none;fill-rule:nonzero;fill:rgb(98.429871%,33.729553%,39.99939%);fill-opacity:1;" d="M 205.199219 230.03125 C 205.199219 236.859375 196.800781 242.394531 186.445312 242.394531 C 176.085938 242.394531 167.691406 236.859375 167.691406 230.03125 C 167.691406 223.203125 176.273438 219.253906 186.628906 219.253906 C 196.988281 219.253906 205.199219 223.203125 205.199219 230.03125 "/>
</g>
</svg>
